<?xml version="1.0" encoding="UTF-8"?>
<svg width="65px" height="65px" viewBox="0 0 65 65" version="1.1" xmlns="http://www.w3.org/2000/svg" xmlns:xlink="http://www.w3.org/1999/xlink">
    <!-- Generator: Sketch 41.2 (35397) - http://www.bohemiancoding.com/sketch -->
    <title>pass</title>
    <desc>Created with Sketch.</desc>
    <defs></defs>
    <g id="ikoner-+-rollovers" stroke="none" stroke-width="1" fill="none" fill-rule="evenodd">
        <g id="Group-5" transform="translate(12.000000, 10.000000)" fill="#0E465E">
            <path d="M14.548978,26.0967729 C15.336887,25.3635718 16.7501795,23.8603657 17.458311,21.963836 L19.8518485,21.963836 C18.9973168,24.1791209 16.9756147,25.8124748 14.548978,26.0967729 L14.548978,26.0967729 Z M7.73351733,21.963836 L10.127267,21.963836 C10.8352924,23.8603657 12.248585,25.3635718 13.0363879,26.0967729 C10.6097512,25.8124748 8.58804904,24.1791209 7.73351733,21.963836 L7.73351733,21.963836 Z M13.2894057,13.0964024 C12.618829,13.6856942 11.0276283,15.2314651 10.2072567,17.253662 L7.73341124,17.253662 C8.61754126,14.961782 10.7509532,13.2931175 13.2894057,13.0964024 L13.2894057,13.0964024 Z M19.8518485,17.253662 L17.3783213,17.253662 C16.5577375,15.2314651 14.9666429,13.6856942 14.2959602,13.0964024 C16.8344127,13.2931175 18.9678246,14.961782 19.8518485,17.253662 L19.8518485,17.253662 Z M14.1109443,21.3237652 L14.1109443,17.8937327 L16.9353015,17.8937327 C17.130714,18.4712899 17.2511229,19.081384 17.2511229,19.7110003 C17.2511229,20.2665817 17.1576601,20.8071215 17.0010756,21.3237652 L14.1109443,21.3237652 Z M14.1109443,25.636882 L14.1109443,21.963836 L16.7704422,21.963836 C16.0816185,23.6268465 14.8195001,24.9705684 14.1109443,25.636882 L14.1109443,25.636882 Z M13.4744216,21.963836 L13.4744216,25.6376288 C12.7655475,24.9718485 11.5026865,23.6287667 10.8141811,21.963836 L13.4744216,21.963836 Z M13.4744216,17.253662 L10.9031882,17.253662 C11.6072883,15.6853819 12.7951458,14.4243359 13.4744216,13.7855453 L13.4744216,17.253662 Z M14.1109443,13.7846918 C14.7905383,14.4229491 15.9794566,15.6836751 16.6834507,17.253662 L14.1109443,17.253662 L14.1109443,13.7846918 Z M10.3344551,19.7110003 C10.3344551,19.0815974 10.4550762,18.47161 10.6510191,17.8937327 L13.4744216,17.8937327 L13.4744216,21.3237652 L10.5838659,21.3237652 C10.4277057,20.8073348 10.3344551,20.2667951 10.3344551,19.7110003 L10.3344551,19.7110003 Z M7.29505928,19.608589 C7.29505928,19.0152434 7.3755794,18.4406732 7.52367701,17.8937327 L9.98023026,17.8937327 C9.80465608,18.4711832 9.69793244,19.0796772 9.69793244,19.7110003 C9.69793244,20.2682886 9.78131692,20.8076549 9.92113973,21.3237652 L7.5237831,21.3237652 C7.3755794,20.7768248 7.29505928,20.2021479 7.29505928,19.608589 L7.29505928,19.608589 Z M20.0569149,21.3404071 C20.0278471,21.330486 19.9975061,21.3237652 19.9653617,21.3237652 L17.6644383,21.3237652 C17.8042611,20.8076549 17.8876456,20.2682886 17.8876456,19.7110003 C17.8876456,19.0796772 17.7809219,18.4711832 17.6053478,17.8937327 L19.9653617,17.8937327 C19.9975061,17.8937327 20.0278471,17.887012 20.0569149,17.8770909 C20.207983,18.4289386 20.2903066,19.0091627 20.2903066,19.608589 C20.2903066,20.2082286 20.207983,20.7884527 20.0569149,21.3404071 L20.0569149,21.3404071 Z M13.7926829,12.4347826 C9.8588666,12.4347826 6.65853659,15.6529517 6.65853659,19.608589 C6.65853659,23.5643329 9.8588666,26.782502 13.7926829,26.782502 C17.7263932,26.782502 20.9268293,23.5643329 20.9268293,19.608589 C20.9268293,15.6529517 17.7263932,12.4347826 13.7926829,12.4347826 L13.7926829,12.4347826 Z" id="globe-copy" stroke="#0E465E" stroke-width="0.3"></path>
            <path d="M9.73829548,33.046495 C9.73829548,33.5349244 9.57921861,33.9092392 9.26106011,34.1694505 C8.94290161,34.4296619 8.4900628,34.5597656 7.90253011,34.5597656 L7.4189316,34.5597656 L7.4189316,36.3097846 L6.65853659,36.3097846 L6.65853659,31.6324028 L7.99797718,31.6324028 C8.57914671,31.6324028 9.01448706,31.7518422 9.3040113,31.9907248 C9.59353553,32.2296073 9.73829548,32.5815272 9.73829548,33.046495 Z M7.4189316,33.9167055 L7.82299088,33.9167055 C8.21326531,33.9167055 8.49960366,33.8484544 8.68201454,33.7119501 C8.86442541,33.5754458 8.95562948,33.362161 8.95562948,33.0720894 C8.95562948,32.8033465 8.87397002,32.6028589 8.71064866,32.4706203 C8.54732729,32.3383818 8.29280431,32.2722635 7.94707207,32.2722635 L7.4189316,32.2722635 L7.4189316,33.9167055 Z M13.5529968,36.3097846 L13.0884877,35.0108674 L11.3099906,35.0108674 L10.8550262,36.3097846 L10.0532708,36.3097846 L11.7935891,31.6132069 L12.6207971,31.6132069 L14.3611154,36.3097846 L13.5529968,36.3097846 Z M12.8880489,34.3518108 L12.4521739,33.078488 C12.4203581,32.9931728 12.3763468,32.8588034 12.3201388,32.6753757 C12.2639308,32.4919481 12.2252221,32.3575787 12.2040115,32.2722635 C12.146743,32.5346077 12.0629625,32.8214757 11.9526676,33.1328762 L11.5327005,34.3518108 L12.8880489,34.3518108 Z M17.657221,35.0396611 C17.657221,35.4555727 17.5076887,35.7818984 17.2086197,36.018648 C16.9095507,36.2553977 16.4970114,36.3737707 15.9709894,36.3737707 C15.4449673,36.3737707 15.0143993,36.2916561 14.6792723,36.1274243 L14.6792723,35.4043817 C14.891378,35.5046271 15.1167369,35.5835424 15.3553557,35.6411302 C15.5939746,35.6987179 15.816152,35.7275114 16.0218945,35.7275114 C16.3230845,35.7275114 16.5452619,35.6699245 16.6884332,35.554749 C16.8316045,35.4395735 16.9031891,35.284942 16.9031891,35.09085 C16.9031891,34.9159538 16.8374373,34.7677209 16.7059318,34.6461468 C16.5744263,34.5245726 16.3029351,34.3806054 15.8914501,34.2142408 C15.4672388,34.0414775 15.1681743,33.8441891 14.9942476,33.6223696 C14.820321,33.4005501 14.733359,33.1339441 14.733359,32.8225437 C14.733359,32.4322267 14.8712256,32.1250966 15.146963,31.9011443 C15.4227003,31.6771919 15.7928192,31.5652174 16.2573306,31.5652174 C16.7027525,31.5652174 17.1460467,31.6633284 17.5872265,31.8595533 L17.3454272,32.4834175 C16.9318212,32.3085214 16.5627628,32.2210746 16.2382412,32.2210746 C15.9921986,32.2210746 15.8055484,32.274929 15.678285,32.3826395 C15.5510216,32.4903499 15.4873909,32.6327175 15.4873909,32.8097465 C15.4873909,32.9313206 15.5128431,33.035297 15.5637485,33.1216786 C15.6146539,33.2080602 15.6984344,33.2896416 15.8150925,33.3664253 C15.9317506,33.443209 16.141732,33.5445193 16.4450432,33.6703592 C16.7865333,33.8132621 17.0368142,33.9465651 17.1958935,34.0702721 C17.3549727,34.1939791 17.4716291,34.3336807 17.5458661,34.4893809 C17.620103,34.6450811 17.657221,34.828506 17.657221,35.0396611 Z M21.2396678,35.0396611 C21.2396678,35.4555727 21.0901355,35.7818984 20.7910665,36.018648 C20.4919976,36.2553977 20.0794582,36.3737707 19.5534362,36.3737707 C19.0274141,36.3737707 18.5968461,36.2916561 18.2617191,36.1274243 L18.2617191,35.4043817 C18.4738248,35.5046271 18.6991837,35.5835424 18.9378025,35.6411302 C19.1764214,35.6987179 19.3985988,35.7275114 19.6043413,35.7275114 C19.9055313,35.7275114 20.1277087,35.6699245 20.27088,35.554749 C20.4140513,35.4395735 20.4856359,35.284942 20.4856359,35.09085 C20.4856359,34.9159538 20.4198841,34.7677209 20.2883786,34.6461468 C20.1568731,34.5245726 19.8853819,34.3806054 19.4738969,34.2142408 C19.0496856,34.0414775 18.7506211,33.8441891 18.5766945,33.6223696 C18.4027678,33.4005501 18.3158058,33.1339441 18.3158058,32.8225437 C18.3158058,32.4322267 18.4536724,32.1250966 18.7294098,31.9011443 C19.0051471,31.6771919 19.375266,31.5652174 19.8397774,31.5652174 C20.2851993,31.5652174 20.7284935,31.6633284 21.1696733,31.8595533 L20.927874,32.4834175 C20.514268,32.3085214 20.1452096,32.2210746 19.820688,32.2210746 C19.5746454,32.2210746 19.3879952,32.274929 19.2607318,32.3826395 C19.1334684,32.4903499 19.0698377,32.6327175 19.0698377,32.8097465 C19.0698377,32.9313206 19.09529,33.035297 19.1461953,33.1216786 C19.1971007,33.2080602 19.2808812,33.2896416 19.3975393,33.3664253 C19.5141974,33.443209 19.7241789,33.5445193 20.02749,33.6703592 C20.3689801,33.8132621 20.619261,33.9465651 20.7783403,34.0702721 C20.9374195,34.1939791 21.0540759,34.3336807 21.1283129,34.4893809 C21.2025499,34.6450811 21.2396678,34.828506 21.2396678,35.0396611 Z" id="pass"></path>
            <path d="M2.20646095,7.75880325 C1.53693346,7.75880325 0.992333655,8.32594457 0.992333655,9.02300305 L0.992333655,40.7766151 C0.992333655,41.4737769 1.53693346,42.0409699 2.20646095,42.0409699 L25.6842334,42.0409699 C26.3536162,42.0409699 26.8981678,41.4737769 26.8981678,40.7766151 L26.8981678,9.02300305 C26.8981678,8.32594457 26.3536162,7.75880325 25.6842334,7.75880325 L2.20646095,7.75880325 Z M25.6842334,43.104121 L2.20646095,43.104121 C0.989778206,43.104121 0,42.0598763 0,40.7766151 L0,9.02300305 C0,7.73974184 0.989778206,6.69565217 2.20646095,6.69565217 L25.6842334,6.69565217 C26.9008679,6.69565217 27.8905014,7.73974184 27.8905014,9.02300305 L27.8905014,40.7766151 C27.8905014,42.0598763 26.9008679,43.104121 25.6842334,43.104121 L25.6842334,43.104121 Z" id="Fill-1" stroke="#0E465E" stroke-width="0.5"></path>
            <path d="M31.788534,39.0872404 C31.7126902,39.0872404 31.6358821,39.0825912 31.5588329,39.0724665 L27.2442717,38.5157082 C26.9721888,38.4806848 26.7781675,38.2159431 26.8111473,37.9244431 C26.8437895,37.6326848 27.0919091,37.4243008 27.3630277,37.4603573 L31.6775407,38.017064 C32.1725263,38.0817384 32.6354482,37.714716 32.7059882,37.200523 L37.1026613,5.20200547 C37.1368464,4.95214095 37.0767693,4.70248306 36.9328445,4.49895479 C36.7826516,4.28654154 36.5614366,4.1503739 36.310183,4.11560879 L14.3118705,1.07203471 C13.8167886,1.00534563 13.361967,1.35129202 13.278939,1.86419358 L12.3997683,7.30480372 C12.3529988,7.5939275 12.0962003,7.78846746 11.8261907,7.73784368 C11.556181,7.68778813 11.3752264,7.41266337 11.4219959,7.12338462 L12.3011666,1.68287779 C12.4747442,0.607277405 13.4137992,-0.124804467 14.4389197,0.0177169757 L36.4371357,3.06129105 C36.9548792,3.13278423 37.4118223,3.41545089 37.7238763,3.85722087 C38.0298069,4.28989924 38.1577722,4.82253374 38.0843392,5.35682126 L33.6876661,37.3552355 C33.5505398,38.3535055 32.7234424,39.0872404 31.788534,39.0872404" id="Fill-4" stroke="#0E465E" stroke-width="0.5"></path>
        </g>
    </g>
</svg>