<svg width="65" height="65" viewBox="0 0 65 65" xmlns="http://www.w3.org/2000/svg"><title>studier_research</title><path d="M60.062 42.003c0 1.359-1.07 2.464-2.385 2.464h-1.692a.75.75 0 0 0-.225.038h-4.653a.314.314 0 0 1-.313-.313v-.233c0-.173.14-.313.313-.313.06 0 .118-.009.174-.022h2.08a.759.759 0 1 0 0-1.518H50.69c-.269 0-.488-.242-.488-.539v-.282c0-.297.22-.538.488-.538.062 0 .12-.01.178-.024h2.743a.759.759 0 1 0 0-1.518h-2.948a.502.502 0 0 1-.502-.501v-.274c0-.276.225-.501.502-.501h2.769a.759.759 0 1 0 0-1.518h-2.627c-.037-.006-.074-.012-.113-.012a.493.493 0 0 1-.502-.482v-.27c0-.266.226-.483.502-.483h5.252c.392 0 .712-.3.751-.682a.757.757 0 0 0 .03-.198v-1.093h2.734c.332 0 .602.242.602.54l.002 2.003v6.269zM37.204 52.039V26.54h18.001v7.105h-4.514c-1.114 0-2.02.897-2.02 2v.27c0 .465.162.892.431 1.232-.287.349-.46.796-.46 1.282v.274c0 .496.18.95.478 1.303a2.078 2.078 0 0 0-.437 1.278v.282c0 .655.301 1.238.768 1.615a1.815 1.815 0 0 0-.175.777v.233c0 1.01.821 1.831 1.831 1.831h4.098v6.016H37.204zm-4.932 4.167a3.418 3.418 0 0 1-3.414-3.413v-23.44a4.911 4.911 0 0 0 6.828 0v23.45a3.417 3.417 0 0 1-3.414 3.403zM10.286 46.023h4.187c1.01 0 1.832-.821 1.832-1.83v-.234c0-.278-.064-.54-.175-.777.466-.377.767-.96.767-1.615v-.282c0-.483-.164-.927-.437-1.278a2.01 2.01 0 0 0 .479-1.303v-.274c0-.486-.173-.933-.461-1.282.269-.34.431-.767.431-1.231v-.27c0-1.104-.906-2.001-2.02-2.001h-4.603V26.54H27.34v25.498H10.286v-6.016zm-4.735-4.02v-6.696a.748.748 0 0 0-.032-.208l.001-1.37c0-.296.27-.538.602-.538h2.646v1.123c0 .263.133.494.336.63.137.136.325.22.534.22h5.251c.277 0 .502.217.502.483v.27a.493.493 0 0 1-.502.482c-.038 0-.076.006-.113.012H12.15a.76.76 0 1 0 0 1.518h2.769c.277 0 .501.225.501.501v.274a.502.502 0 0 1-.501.501H11.97a.76.76 0 1 0 0 1.518h2.742a.754.754 0 0 0 .178.024c.27 0 .488.241.488.538v.282c0 .297-.219.539-.488.539h-2.672a.76.76 0 1 0 0 1.518h2.08a.753.753 0 0 0 .174.022c.173 0 .313.14.313.313v.233c0 .173-.14.313-.313.313h-4.62a.749.749 0 0 0-.224-.038H7.936c-1.315 0-2.385-1.105-2.385-2.464zm4.735-19.344h17.215c.023 0 .045-.005.067-.007.023.002.044.007.068.007 2.065 0 3.76 1.804 3.92 4.088-.007.115-.01.231-.01.348 0 .42.34.76.758.76l.013-.002.013.001c.42 0 .76-.34.76-.759 0-.117-.005-.233-.01-.348.158-2.284 1.853-4.088 3.919-4.088h18.206v2.364H36.61a.76.76 0 0 0-.165.019.76.76 0 0 0-.76.76v.009a3.417 3.417 0 0 1-3.413 3.404 3.418 3.418 0 0 1-3.414-3.414c0-.21-.085-.4-.223-.538a.755.755 0 0 0-.552-.24H10.286v-2.364zm13.452-3.772h7.41c2.033 0 3.815-1.133 4.789-2.822a5.76 5.76 0 0 0 5.083 3.06h.297v2.016h-4.318c-1.987 0-3.728 1.166-4.682 2.904-.953-1.738-2.695-2.904-4.681-2.904-.024 0-.045.005-.068.007-.022-.002-.044-.007-.067-.007h-3.763v-2.254zm8.79-9.369c4.61 0 8.4 3.569 8.758 8.088h-.266a4.243 4.243 0 0 1-4.238-4.237.754.754 0 0 0-.063-.303.757.757 0 0 0-1.514.045c0 2.348-1.82 4.258-4.056 4.258h-7.36c.47-4.407 4.21-7.85 8.739-7.85zm29.05 24.427v-.215c0-1.135-.951-2.057-2.12-2.057h-2.734V21.14H42.835v-2.833C42.835 12.624 38.211 8 32.528 8 26.844 8 22.22 12.624 22.22 18.308v2.833H8.768V31.672H6.122c-1.169 0-2.12.923-2.12 2.057v.216a.882.882 0 0 0-.002.052v1.736h.033v6.27c0 2.196 1.75 3.983 3.903 3.983h.832v7.571h18.638a4.935 4.935 0 0 0 4.866 4.168 4.935 4.935 0 0 0 4.867-4.168h19.585v-7.571h.953c2.152 0 3.903-1.787 3.903-3.983v-8.006c0-.018 0-.035-.002-.052z" fill="#0E465E" fill-rule="evenodd"/></svg>