<svg width="66" height="65" viewBox="0 0 66 65" xmlns="http://www.w3.org/2000/svg"><title>visa_immigration</title><path d="M56.04 42.894c0 .19-.153.345-.343.345h-4.183v14.709a.23.23 0 0 1-.229.23h-7.647a.23.23 0 0 1-.229-.23v-14.71h-4.182a.345.345 0 0 1-.344-.344V29.01c0-.024.003-.048.008-.075l.012-.066v-.748c0-2.319 1.881-4.206 4.193-4.206h2.865v-3.834l-.398-.194a4.366 4.366 0 0 1-2.434-3.413l-.091-.753-.744.142a.465.465 0 0 1-.54-.455v-1.757a.463.463 0 0 1 .532-.456l.81.118v-1.508c0-2.418 1.962-4.386 4.373-4.386 2.41 0 4.372 1.968 4.372 4.386V13.3l.799-.105c.023-.003.045-.006.069-.006.254 0 .46.208.46.463v1.757a.462.462 0 0 1-.538.455l-.733-.128-.09.741a4.367 4.367 0 0 1-2.445 3.417l-.4.194v3.828h2.865c2.311 0 4.192 1.887 4.192 4.206v.752l.014.071a.343.343 0 0 1 .007.066v13.884zM15.222 29.516c0-2.399 1.946-4.351 4.338-4.351h2.93v-2.73a4.92 4.92 0 0 0 3.133-.154v2.884h2.93c2.392 0 4.338 1.952 4.338 4.351v2.999H15.22v-2.999zm2.506-14.18c.092-1.558.186-3.169.538-4.388.703-2.44 2.491-3.53 5.796-3.53.015 0 .029-.002.043-.003.015 0 .029.004.043.004 3.305 0 5.093 1.088 5.796 3.529.352 1.22.447 2.83.538 4.39.108 1.825.211 3.588.74 4.768h-3.047c.502-.83.793-1.812.793-2.864v-3.64c0-.206-.012-.312-.029-.458l-.007-.062a.702.702 0 0 0-.178-.393.702.702 0 0 0-.481-.323c-1.183-.194-1.819-2.188-1.964-2.939a.708.708 0 0 0-1.318-.203c-.067.126-1.707 3.08-5.463 3.144a.705.705 0 0 0-.283.065.709.709 0 0 0-.561.694v4.115c0 1.052.292 2.034.793 2.864h-2.489c.53-1.18.633-2.944.74-4.77zm4.192 5.302a.705.705 0 0 0-.658-.53 4.064 4.064 0 0 1-1.163-2.866V13.76c2.62-.213 4.322-1.594 5.256-2.647.388.95 1.072 2.099 2.199 2.522v3.607c0 2.183-1.672 3.959-3.727 3.959a3.539 3.539 0 0 1-1.907-.563zm35.515 8.1v-.617c0-3.101-2.515-5.625-5.606-5.625h-1.45V20.96a5.771 5.771 0 0 0 2.73-3.712 1.883 1.883 0 0 0 1.476-1.839v-1.757c0-.847-.56-1.565-1.329-1.8v-.046C53.255 8.605 50.66 6 47.47 6c-3.191 0-5.788 2.604-5.788 5.805v.042a1.885 1.885 0 0 0-1.342 1.804v1.757c0 .906.641 1.663 1.492 1.842a5.772 5.772 0 0 0 2.715 3.7v1.546h-1.45c-3.092 0-5.607 2.524-5.607 5.625v.621c-.014.09-.02.18-.02.268v3.505h-3.165v-2.999c0-3.181-2.58-5.77-5.752-5.77h-1.516v-2.183c0-.013-.003-.025-.004-.038h5.947a.709.709 0 1 0 .129-1.407c-.94-.174-1.086-2.666-1.215-4.864-.096-1.636-.195-3.328-.59-4.7C29.99 6 25.592 6 24.146 6c-.014 0-.028.004-.043.004-.014 0-.028-.004-.043-.004-1.445 0-5.842 0-7.155 4.554-.396 1.371-.495 3.063-.59 4.7-.13 2.198-.276 4.69-1.215 4.864a.71.71 0 0 0 .129 1.407h5.49c.114.091.233.176.355.257v1.964h-1.516c-3.172 0-5.752 2.589-5.752 5.77v2.999H9.435a.708.708 0 0 0 0 1.419h4.372v.064h20.497v-.064h3.165v8.96c0 .973.788 1.764 1.758 1.764h2.767v13.29c0 .909.738 1.649 1.644 1.649h7.647c.906 0 1.644-.74 1.644-1.649v-13.29h2.768c.97 0 1.758-.791 1.758-1.764V29.01c0-.09-.007-.182-.02-.271z" fill="#0E465E" fill-rule="evenodd"/></svg>