<?xml version="1.0" encoding="UTF-8"?>
<svg width="65px" height="65px" viewBox="0 0 65 65" version="1.1" xmlns="http://www.w3.org/2000/svg" xmlns:xlink="http://www.w3.org/1999/xlink">
    <!-- Generator: Sketch 41.2 (35397) - http://www.bohemiancoding.com/sketch -->
    <title>visitNorway</title>
    <desc>Created with Sketch.</desc>
    <defs></defs>
    <g id="ikoner-+-rollovers" stroke="none" stroke-width="1" fill="none" fill-rule="evenodd">
        <g id="Group" transform="translate(3.000000, 9.000000)" fill="#0E465E">
            <path d="M20.6762438,35.5750557 L22.0650988,34.5355564 L13.1322132,22.009446 C12.793687,21.5617906 12.0724315,21.5617906 11.7382608,22.003517 L0.843523824,36.4120471 L0.686143901,36.6201855 L2.07494996,37.659184 L12.4264682,23.9681573 L20.6762438,35.5750557 Z" id="Fill-1"></path>
            <path d="M43.2728676,35.3733254 L44.6611688,34.3342406 L29.8203322,14.705687 C29.6566779,14.4886408 29.3994164,14.3611111 29.1254909,14.3611111 C28.8520775,14.3611111 28.594989,14.488555 28.4307279,14.7055836 L17.7162524,28.8754725 L17.5589033,29.0835666 L18.9472048,30.1226517 L29.125483,16.6615473 L43.2728676,35.3733254 Z" id="Fill-4"></path>
            <polygon id="Fill-13" points="15.8181818 2.11205098 17.0292324 2.11205098 17.0292324 0 15.8181818 0"></polygon>
            <polygon id="Fill-15" points="15.8181818 15.6898288 17.0292324 15.6898288 17.0292324 13.5777778 15.8181818 13.5777778"></polygon>
            <polygon id="Fill-16" points="22.1454545 8.51529412 24.2692247 8.51529412 24.2692247 7.31111111 22.1454545 7.31111111"></polygon>
            <polygon id="Fill-17" points="8.43636364 8.51529412 10.5597015 8.51529412 10.5597015 7.31111111 8.43636364 7.31111111"></polygon>
            <polygon id="Fill-18" points="21.5370978 13.8344654 20.0363636 12.3395582 20.892876 11.4888889 22.3931778 12.983366"></polygon>
            <polygon id="Fill-19" points="12.0466211 4.43446536 10.5454545 2.9404183 11.4019669 2.08888889 12.9027011 3.58336601"></polygon>
            <polygon id="Fill-20" points="20.8924436 4.43360523 20.0363636 3.58250588 21.5375302 2.08888889 22.3940425 2.93998824"></polygon>
            <polygon id="Fill-21" points="11.4011022 13.8340353 10.5454545 12.9825059 12.0483505 11.4888889 12.9039982 12.3404183"></polygon>
            <path d="M47.05811,40.5904061 C46.4080004,40.5904061 45.8846441,40.3405163 44.7744522,39.5899014 C44.6288101,39.4911285 44.5573252,39.4427751 44.4782838,39.3898911 C43.3336268,38.6240379 42.5322437,38.2788889 41.4997216,38.2788889 C40.460987,38.2788889 39.6612896,38.6226554 38.5133659,39.3897778 C38.4353381,39.4419214 38.3626983,39.4909781 38.2165756,39.5898872 C37.1158087,40.3341298 36.5760888,40.5904061 35.9238578,40.5904061 C35.2736588,40.5904061 34.7537846,40.3423171 33.6373898,39.5896315 C33.4924047,39.4912234 33.4204522,39.4425063 33.3420702,39.3900021 C32.1976115,38.623386 31.3981198,38.2788889 30.363059,38.2788889 C29.3265722,38.2788889 28.5283381,38.6224364 27.3802677,39.3897949 C27.3024387,39.4418149 27.2296356,39.4909861 27.0835285,39.5898872 C25.9636478,40.3443919 25.4488864,40.5904061 24.7998498,40.5904061 C24.1479837,40.5904061 23.611153,40.3357367 22.5036404,39.5895642 C22.3588388,39.4912317 22.2880244,39.4432802 22.2083959,39.389963 C21.0658169,38.6249208 20.2613758,38.2788889 19.2263963,38.2788889 C18.076045,38.2788889 16.8229736,38.7187233 15.2409481,39.5341196 C14.5536871,39.8878017 14.2131325,40.4446089 14.4817989,40.9197864 C14.7414658,41.3790467 15.3944842,41.4191059 16.0512829,41.0802252 C17.276262,40.4495514 18.507786,40.0228182 19.2263963,40.0228182 C19.8766874,40.0228182 20.4001366,40.2736181 21.5095147,41.0265384 C21.6637978,41.1302082 21.7383616,41.1801592 21.8217129,41.2353271 C22.9620679,41.9900967 23.7700465,42.3337386 24.7998498,42.3337386 C25.8283311,42.3337386 26.6220169,41.9941072 27.7659764,41.2350973 C27.8454693,41.1823543 27.9233802,41.1301088 28.0758468,41.0276742 C29.1967229,40.2696285 29.7117498,40.0228182 30.363059,40.0228182 C31.0087019,40.0228182 31.5195691,40.267817 32.647275,41.0272805 C32.8000782,41.1300213 32.8784025,41.1825916 32.9573061,41.2349986 C34.1008915,41.9945563 34.8932472,42.3337386 35.9238578,42.3337386 C36.9556474,42.3337386 37.7633129,41.9897921 38.8999049,41.2350156 C38.9831121,41.1797602 39.057315,41.1298798 39.2094913,41.0272726 C40.3277944,40.2714958 40.8477772,40.0228182 41.4997216,40.0228182 C42.143601,40.0228182 42.6610254,40.2706395 43.7845403,41.0272805 C43.9357773,41.1295611 44.010634,41.180048 44.0925713,41.2346635 C45.2270201,41.990833 46.0286012,42.3337386 47.05811,42.3337386 C48.0869929,42.3337386 48.8801878,41.9942814 50.0242775,41.2350849 C50.1035784,41.1824623 50.1816556,41.1301015 50.3341071,41.0276742 C50.8799121,40.6588082 51.0804482,40.0918725 50.7878016,39.6670626 C50.4949337,39.2419315 49.8887194,39.2208984 49.3443035,39.5902247 C48.2281918,40.3421884 47.7078549,40.5904061 47.05811,40.5904061 Z" id="Fill-1"></path>
            <path d="M56.0782838,43.5676688 C54.9336268,42.8018156 54.1322437,42.4566667 53.0997216,42.4566667 C52.060987,42.4566667 51.2612896,42.8004332 50.1133659,43.5675556 C50.0353381,43.6196992 49.9626983,43.6687559 49.8165756,43.767665 C48.7158087,44.5119076 48.1760888,44.7681839 47.5238578,44.7681839 C46.8736588,44.7681839 46.3537846,44.5200949 45.2373898,43.7674093 C45.0924047,43.6690011 45.0204522,43.6202841 44.9420702,43.5677798 C43.7976115,42.8011638 42.9981198,42.4566667 41.963059,42.4566667 C40.9265722,42.4566667 40.1283381,42.8002142 38.9802677,43.5675726 C38.9024387,43.6195927 38.8296356,43.6687639 38.6835285,43.767665 C37.5636478,44.5221697 37.0488864,44.7681839 36.3998498,44.7681839 C35.7479837,44.7681839 35.211153,44.5135145 34.1036404,43.767342 C33.5603068,43.3987477 32.9544197,43.4197621 32.660972,43.8443988 C32.3678071,44.2686263 32.5665084,44.835785 33.1095147,45.2043162 C33.2637978,45.3079859 33.3383616,45.357937 33.4217129,45.4131049 C34.5620679,46.1678745 35.3700465,46.5115163 36.3998498,46.5115163 C37.4283311,46.5115163 38.2220169,46.171885 39.3659764,45.4128751 C39.4454693,45.360132 39.5233802,45.3078866 39.6758468,45.205452 C40.7967229,44.4474063 41.3117498,44.2005959 41.963059,44.2005959 C42.6087019,44.2005959 43.1195691,44.4455948 44.247275,45.2050583 C44.4000782,45.3077991 44.4784025,45.3603694 44.5573061,45.4127764 C45.7008915,46.1723341 46.4932472,46.5115163 47.5238578,46.5115163 C48.5556474,46.5115163 49.3633129,46.1675699 50.4999049,45.4127934 C50.5831121,45.357538 50.657315,45.3076576 50.8094913,45.2050504 C51.9277944,44.4492736 52.4477772,44.2005959 53.0997216,44.2005959 C53.743601,44.2005959 54.2610254,44.4484173 55.3845403,45.2050583 C55.9275622,45.5718235 56.5324464,45.549527 56.824881,45.1254099 C57.1174203,44.7011411 56.917899,44.1351105 56.3744522,43.7676792 C56.2288101,43.6689063 56.1573252,43.6205529 56.0782838,43.5676688 Z" id="Fill-1-Copy"></path>
            <path d="M16.3454545,12.1677778 C18.7624534,12.1677778 20.7218182,10.2271809 20.7218182,7.83333333 C20.7218182,5.43948577 18.7624534,3.49888889 16.3454545,3.49888889 C13.9284556,3.49888889 11.9690909,5.43948577 11.9690909,7.83333333 C11.9690909,10.2271809 13.9284556,12.1677778 16.3454545,12.1677778 Z M16.3454545,10.81 C14.6855878,10.81 13.34,9.47730094 13.34,7.83333333 C13.34,6.18936573 14.6855878,4.85666667 16.3454545,4.85666667 C18.0053213,4.85666667 19.3509091,6.18936573 19.3509091,7.83333333 C19.3509091,9.47730094 18.0053213,10.81 16.3454545,10.81 Z" id="Oval"></path>
        </g>
    </g>
</svg>